<svg width="18" height="16" viewBox="0 0 18 16" fill="none" xmlns="http://www.w3.org/2000/svg">
<path d="M16.9727 0.870094L16.2365 0.133955C16.0285 -0.0740919 15.6444 -0.0420742 15.4043 0.245948L12.8435 2.79059C11.6911 2.29452 10.4269 2.05445 9.09847 2.05445C5.14529 2.0704 1.7206 4.37498 0.0720399 7.68807C-0.0240133 7.89612 -0.0240133 8.15212 0.0720399 8.32815C0.840178 9.89659 1.99256 11.193 3.43294 12.1692L1.33639 14.2977C1.09633 14.5378 1.06431 14.9219 1.2244 15.1299L1.96054 15.8661C2.16859 16.0741 2.55267 16.0421 2.79274 15.7541L16.8444 1.70243C17.1485 1.4625 17.1805 1.07844 16.9725 0.870368L16.9727 0.870094ZM9.94668 5.70327C9.6746 5.63924 9.38658 5.55926 9.11448 5.55926C7.75407 5.55926 6.66589 6.64757 6.66589 8.00785C6.66589 8.27993 6.72993 8.56795 6.8099 8.84005L5.7375 9.89636C5.41746 9.33626 5.24143 8.71199 5.24143 8.00788C5.24143 5.87933 6.95391 4.16685 9.08246 4.16685C9.7867 4.16685 10.4108 4.34288 10.9709 4.66293L9.94668 5.70327Z" fill="#666666" fill-opacity="0.8"/>
</svg>
